<?xml version="1.0" encoding="utf-8"?>
<!-- Generator: Adobe Illustrator 18.0.0, SVG Export Plug-In . SVG Version: 6.00 Build 0)  -->
<!DOCTYPE svg PUBLIC "-//W3C//DTD SVG 1.1//EN" "http://www.w3.org/Graphics/SVG/1.1/DTD/svg11.dtd">
<svg version="1.1" xmlns="http://www.w3.org/2000/svg" xmlns:xlink="http://www.w3.org/1999/xlink" x="0px" y="0px"
	 viewBox="0 0 93.1 93.1" enable-background="new 0 0 93.1 93.1" xml:space="preserve">
<g id="Livello_1">
</g>
<g id="Livello_4">
</g>
<g id="Livello_2" display="none">
</g>
<g id="Modalità_Isolamento">
</g>
<g id="Layer_1">
	<g>
		<path opacity="5.000000e-002" fill="#FFFFFF" d="M46.6,93.1C20.9,93.1,0,72.2,0,46.6C0,20.9,20.9,0,46.6,0s46.5,20.9,46.5,46.5
			C93.1,72.2,72.2,93.1,46.6,93.1z M46.6,1C21.4,1,1,21.4,1,46.6c0,25.1,20.4,45.5,45.5,45.5s45.5-20.4,45.5-45.5
			C92.1,21.4,71.7,1,46.6,1z"/>
		<circle opacity="5.000000e-002" fill="#FFFFFF" cx="46.6" cy="46.6" r="46.6"/>
		<g>
			<g>
				<path fill="#FFFFFF" d="M46.6,88.1C23.6,88.1,5,69.5,5,46.6C5,23.6,23.6,5,46.6,5s41.5,18.6,41.5,41.5
					C88.1,69.5,69.5,88.1,46.6,88.1z M46.6,7.1C24.8,7.1,7.1,24.8,7.1,46.6S24.8,86,46.6,86S86,68.3,86,46.6S68.3,7.1,46.6,7.1z"/>
				<g>
					<path fill="#FFFFFF" d="M73.1,65.5c-0.5,0-0.9-0.3-1-0.8L65.2,30L54.6,43.7c-0.2,0.3-0.5,0.4-0.8,0.4H39.3
						c-0.3,0-0.6-0.1-0.8-0.4L27.9,30l-6.8,34.7c-0.1,0.6-0.7,0.9-1.2,0.8c-0.6-0.1-0.9-0.7-0.8-1.2L26,29.1
						c0.1-0.7,0.6-1.2,1.3-1.4c0.7-0.2,1.4,0,1.8,0.5L39.8,42h13.4l10.7-13.8c0.6-0.6,1.3-0.8,1.9-0.6c0.7,0.2,1.1,0.7,1.3,1.4
						l6.9,35.2c0.1,0.6-0.3,1.1-0.8,1.2C73.2,65.5,73.1,65.5,73.1,65.5z"/>
					<g>
						<path fill="#FFFFFF" d="M57.9,53.3c0,0,1-1.3,3-2.7c1-0.7,2.2-1.4,3.6-2.1c0.7-0.3,1.4-0.6,2.2-0.8c0.8-0.2,1.6-0.5,2.4-0.6
							c0.8-0.2,1.6-0.2,2.5-0.3c0.8-0.1,1.6,0,2.4,0c0.8,0,1.5,0.2,2.2,0.3c0.7,0.1,1.3,0.3,1.9,0.5c1.2,0.3,2.1,0.8,2.7,1.2
							c0.6,0.3,1,0.5,1,0.5s-0.4-0.1-1.1-0.2c-0.3-0.1-0.8-0.1-1.2-0.2c-0.5-0.1-1-0.1-1.6-0.2c-0.6-0.1-1.2-0.1-1.9-0.1
							c-0.7,0-1.3-0.1-2.1,0c-1.4,0.1-2.9,0.1-4.4,0.5c-1.5,0.2-3,0.7-4.3,1.1c-0.7,0.3-1.3,0.4-2,0.7c-0.6,0.2-1.2,0.5-1.7,0.7
							C59.3,52.5,57.9,53.3,57.9,53.3z"/>
					</g>
					<g>
						<path fill="#FFFFFF" d="M59.6,57.4c0,0,0.8-1,2.5-1.8c0.8-0.5,1.9-0.8,3.1-1.1c0.6-0.1,1.2-0.3,1.8-0.3c0.6-0.1,1.3,0,1.9,0
							c0.6,0,1.3,0.2,1.9,0.3c0.6,0.1,1.2,0.4,1.8,0.5c0.6,0.2,1.1,0.5,1.6,0.7c0.5,0.2,0.9,0.6,1.3,0.8c0.8,0.5,1.3,1.1,1.7,1.5
							c0.4,0.4,0.6,0.6,0.6,0.6s-0.3-0.1-0.8-0.3c-0.2-0.1-0.5-0.2-0.9-0.4c-0.3-0.2-0.7-0.2-1.2-0.4c-0.4-0.1-0.9-0.3-1.3-0.4
							c-0.5-0.1-1-0.3-1.5-0.4c-0.5-0.1-1.1-0.2-1.6-0.3c-0.6-0.1-1.1-0.2-1.7-0.2c-1.1-0.1-2.3,0-3.3,0c-1.1,0.1-2.1,0.2-2.9,0.4
							C60.8,57,59.6,57.4,59.6,57.4z"/>
					</g>
					<path fill="#FFFFFF" d="M46.6,57.9c-2.1,0-4.5-2.2-4.8-3.8l-0.1-0.5l0.4-0.5c0.3-0.4,0.9-0.8,4-0.8l0.6,0l0.5,0
						c3,0,3.6,0.4,4,0.8l0.3,0.4l0,0.6C51,55.7,48.7,57.9,46.6,57.9z M44.2,54.4c0.5,0.7,1.5,1.4,2.3,1.4c0.8,0,1.8-0.8,2.3-1.4
						c-0.4,0-1-0.1-1.8-0.1l-0.5,0l-0.6,0C45.2,54.3,44.6,54.3,44.2,54.4z"/>
					<g>
						<path fill="#FFFFFF" d="M35.2,53.3c0,0-1.4-0.8-3.6-1.7c-0.5-0.2-1.1-0.5-1.7-0.7c-0.6-0.3-1.3-0.4-2-0.7
							c-1.4-0.4-2.8-0.9-4.3-1.1c-1.5-0.3-3-0.4-4.4-0.5c-0.7-0.1-1.4,0-2.1,0c-0.7,0-1.3,0.1-1.9,0.1c-0.6,0.1-1.1,0.1-1.6,0.2
							c-0.5,0.1-0.9,0.2-1.2,0.2c-0.7,0.1-1.1,0.2-1.1,0.2s0.3-0.2,1-0.5c0.6-0.3,1.5-0.8,2.7-1.2c0.6-0.2,1.2-0.4,1.9-0.5
							c0.7-0.1,1.4-0.3,2.2-0.3c0.8,0,1.6-0.1,2.4,0c0.8,0.1,1.6,0.1,2.5,0.3c0.8,0.1,1.6,0.4,2.4,0.6c0.8,0.2,1.5,0.6,2.2,0.8
							c1.4,0.7,2.6,1.3,3.6,2.1C34.2,51.9,35.2,53.3,35.2,53.3z"/>
					</g>
					<g>
						<path fill="#FFFFFF" d="M33.5,57.4c0,0-1.2-0.4-2.9-0.7c-0.9-0.2-1.9-0.3-2.9-0.4c-1.1-0.1-2.2-0.1-3.3,0
							c-0.6,0-1.1,0.1-1.7,0.2c-0.5,0.1-1.1,0.2-1.6,0.3c-0.5,0.1-1,0.3-1.5,0.4c-0.5,0.1-0.9,0.3-1.3,0.4c-0.4,0.2-0.8,0.2-1.2,0.4
							c-0.3,0.1-0.6,0.3-0.9,0.4c-0.5,0.2-0.8,0.3-0.8,0.3s0.2-0.2,0.6-0.6c0.4-0.4,0.9-1,1.7-1.5c0.4-0.3,0.8-0.6,1.3-0.8
							c0.5-0.2,1-0.5,1.6-0.7c0.6-0.2,1.2-0.4,1.8-0.5c0.6-0.1,1.3-0.3,1.9-0.3c0.6,0,1.3,0,1.9,0c0.6,0,1.2,0.2,1.8,0.3
							c1.2,0.3,2.2,0.7,3.1,1.1C32.7,56.4,33.5,57.4,33.5,57.4z"/>
					</g>
				</g>
			</g>
		</g>
	</g>
</g>
</svg>
